<mxfile host="app.diagrams.net" modified="2024-07-21T13:49:41.094Z" agent="Mozilla/5.0 (X11; Linux x86_64) AppleWebKit/537.36 (KHTML, like Gecko) Chrome/126.0.0.0 Safari/537.36" etag="2a67PeJ1YmKoJihsACdW" version="24.7.1" type="device">
  <diagram name="Page-1" id="C2BhPdJ9gyQo5coQyA4n">
    <mxGraphModel dx="1812" dy="542" grid="1" gridSize="10" guides="1" tooltips="1" connect="1" arrows="1" fold="1" page="1" pageScale="1" pageWidth="850" pageHeight="1100" math="0" shadow="0">
      <root>
        <mxCell id="0" />
        <mxCell id="1" parent="0" />
        <mxCell id="M_Cu6ki4473zLBdm54El-1" value="SOAR EDR playbook" style="whiteSpace=wrap;html=1;aspect=fixed;" vertex="1" parent="1">
          <mxGeometry x="400" y="40" width="80" height="80" as="geometry" />
        </mxCell>
        <mxCell id="M_Cu6ki4473zLBdm54El-3" value="Slack" style="rounded=1;whiteSpace=wrap;html=1;fillColor=#f8cecc;strokeColor=#b85450;" vertex="1" parent="1">
          <mxGeometry x="105" y="360" width="120" height="60" as="geometry" />
        </mxCell>
        <mxCell id="M_Cu6ki4473zLBdm54El-4" value="Email" style="rounded=1;whiteSpace=wrap;html=1;fillColor=#d5e8d4;strokeColor=#82b366;" vertex="1" parent="1">
          <mxGeometry x="625" y="360" width="120" height="60" as="geometry" />
        </mxCell>
        <mxCell id="M_Cu6ki4473zLBdm54El-8" style="edgeStyle=orthogonalEdgeStyle;rounded=0;orthogonalLoop=1;jettySize=auto;html=1;entryX=0;entryY=0.5;entryDx=0;entryDy=0;" edge="1" parent="1" source="M_Cu6ki4473zLBdm54El-5" target="M_Cu6ki4473zLBdm54El-6">
          <mxGeometry relative="1" as="geometry" />
        </mxCell>
        <mxCell id="M_Cu6ki4473zLBdm54El-9" value="Detectiom" style="edgeLabel;html=1;align=center;verticalAlign=middle;resizable=0;points=[];" vertex="1" connectable="0" parent="M_Cu6ki4473zLBdm54El-8">
          <mxGeometry x="-0.2" y="-1" relative="1" as="geometry">
            <mxPoint as="offset" />
          </mxGeometry>
        </mxCell>
        <mxCell id="M_Cu6ki4473zLBdm54El-5" value="Limacharlie" style="rounded=1;whiteSpace=wrap;html=1;fillColor=#dae8fc;strokeColor=#6c8ebf;" vertex="1" parent="1">
          <mxGeometry x="150" y="200" width="120" height="60" as="geometry" />
        </mxCell>
        <mxCell id="M_Cu6ki4473zLBdm54El-11" style="rounded=0;orthogonalLoop=1;jettySize=auto;html=1;" edge="1" parent="1" source="M_Cu6ki4473zLBdm54El-6" target="M_Cu6ki4473zLBdm54El-3">
          <mxGeometry relative="1" as="geometry" />
        </mxCell>
        <mxCell id="M_Cu6ki4473zLBdm54El-12" value="Send message with details" style="edgeLabel;html=1;align=center;verticalAlign=middle;resizable=0;points=[];" vertex="1" connectable="0" parent="M_Cu6ki4473zLBdm54El-11">
          <mxGeometry x="0.0431" y="9" relative="1" as="geometry">
            <mxPoint x="-11" as="offset" />
          </mxGeometry>
        </mxCell>
        <mxCell id="M_Cu6ki4473zLBdm54El-13" style="rounded=0;orthogonalLoop=1;jettySize=auto;html=1;" edge="1" parent="1" source="M_Cu6ki4473zLBdm54El-6" target="M_Cu6ki4473zLBdm54El-4">
          <mxGeometry relative="1" as="geometry" />
        </mxCell>
        <mxCell id="M_Cu6ki4473zLBdm54El-14" value="Send message with details" style="edgeLabel;html=1;align=center;verticalAlign=middle;resizable=0;points=[];" vertex="1" connectable="0" parent="M_Cu6ki4473zLBdm54El-13">
          <mxGeometry x="-0.0985" y="2" relative="1" as="geometry">
            <mxPoint x="11" y="17" as="offset" />
          </mxGeometry>
        </mxCell>
        <mxCell id="M_Cu6ki4473zLBdm54El-18" style="edgeStyle=orthogonalEdgeStyle;rounded=0;orthogonalLoop=1;jettySize=auto;html=1;" edge="1" parent="1" source="M_Cu6ki4473zLBdm54El-6" target="M_Cu6ki4473zLBdm54El-17">
          <mxGeometry relative="1" as="geometry" />
        </mxCell>
        <mxCell id="M_Cu6ki4473zLBdm54El-30" value="Does user want to isolate?" style="edgeLabel;html=1;align=center;verticalAlign=middle;resizable=0;points=[];" vertex="1" connectable="0" parent="M_Cu6ki4473zLBdm54El-18">
          <mxGeometry x="-0.0296" y="2" relative="1" as="geometry">
            <mxPoint x="-2" y="27" as="offset" />
          </mxGeometry>
        </mxCell>
        <mxCell id="M_Cu6ki4473zLBdm54El-6" value="Tines" style="rounded=1;whiteSpace=wrap;html=1;fillColor=#e1d5e7;strokeColor=#9673a6;" vertex="1" parent="1">
          <mxGeometry x="380" y="200" width="120" height="60" as="geometry" />
        </mxCell>
        <mxCell id="M_Cu6ki4473zLBdm54El-15" value="&lt;div style=&quot;text-align: justify;&quot;&gt;&lt;b&gt;Send message with details&lt;/b&gt;&lt;/div&gt;&lt;div&gt;&lt;div style=&quot;text-align: justify;&quot;&gt;&lt;b&gt;- Tinme&lt;/b&gt;&lt;/div&gt;&lt;div style=&quot;text-align: justify;&quot;&gt;&lt;b&gt;- computer name&lt;/b&gt;&lt;/div&gt;&lt;div style=&quot;text-align: justify;&quot;&gt;&lt;b&gt;- source ip&lt;/b&gt;&lt;/div&gt;&lt;div style=&quot;text-align: justify;&quot;&gt;&lt;b&gt;- process&amp;nbsp;&lt;/b&gt;&lt;/div&gt;&lt;div style=&quot;text-align: justify;&quot;&gt;&lt;b&gt;- comman line&lt;/b&gt;&lt;/div&gt;&lt;div style=&quot;text-align: justify;&quot;&gt;&lt;b&gt;- file path&amp;nbsp;&lt;/b&gt;&lt;/div&gt;&lt;div style=&quot;text-align: justify;&quot;&gt;&lt;b&gt;- sensor id&lt;/b&gt;&lt;/div&gt;&lt;div style=&quot;text-align: justify;&quot;&gt;&lt;b&gt;- link to the detection(if applicable)&lt;/b&gt;&lt;/div&gt;&lt;/div&gt;" style="edgeLabel;html=1;align=center;verticalAlign=middle;resizable=0;points=[];" vertex="1" connectable="0" parent="1">
          <mxGeometry x="719.9997205221432" y="79.99877680658767" as="geometry" />
        </mxCell>
        <mxCell id="M_Cu6ki4473zLBdm54El-22" value="" style="edgeStyle=orthogonalEdgeStyle;rounded=0;orthogonalLoop=1;jettySize=auto;html=1;" edge="1" parent="1" source="M_Cu6ki4473zLBdm54El-17" target="M_Cu6ki4473zLBdm54El-21">
          <mxGeometry relative="1" as="geometry" />
        </mxCell>
        <mxCell id="M_Cu6ki4473zLBdm54El-24" value="" style="edgeStyle=orthogonalEdgeStyle;rounded=0;orthogonalLoop=1;jettySize=auto;html=1;" edge="1" parent="1" source="M_Cu6ki4473zLBdm54El-17" target="M_Cu6ki4473zLBdm54El-23">
          <mxGeometry relative="1" as="geometry" />
        </mxCell>
        <mxCell id="M_Cu6ki4473zLBdm54El-17" value="User prompt" style="rounded=0;whiteSpace=wrap;html=1;" vertex="1" parent="1">
          <mxGeometry x="380" y="430" width="120" height="60" as="geometry" />
        </mxCell>
        <mxCell id="M_Cu6ki4473zLBdm54El-36" style="edgeStyle=orthogonalEdgeStyle;rounded=0;orthogonalLoop=1;jettySize=auto;html=1;" edge="1" parent="1" source="M_Cu6ki4473zLBdm54El-21" target="M_Cu6ki4473zLBdm54El-35">
          <mxGeometry relative="1" as="geometry" />
        </mxCell>
        <mxCell id="M_Cu6ki4473zLBdm54El-37" value="Computer is not been isolated&lt;div&gt;Please investigate&lt;/div&gt;" style="edgeLabel;html=1;align=center;verticalAlign=middle;resizable=0;points=[];" vertex="1" connectable="0" parent="M_Cu6ki4473zLBdm54El-36">
          <mxGeometry x="-0.1498" y="3" relative="1" as="geometry">
            <mxPoint as="offset" />
          </mxGeometry>
        </mxCell>
        <mxCell id="M_Cu6ki4473zLBdm54El-21" value="No" style="rhombus;whiteSpace=wrap;html=1;rounded=0;fillColor=#f8cecc;strokeColor=#b85450;" vertex="1" parent="1">
          <mxGeometry x="545" y="570" width="80" height="80" as="geometry" />
        </mxCell>
        <mxCell id="M_Cu6ki4473zLBdm54El-26" style="edgeStyle=orthogonalEdgeStyle;rounded=0;orthogonalLoop=1;jettySize=auto;html=1;" edge="1" parent="1" source="M_Cu6ki4473zLBdm54El-23" target="M_Cu6ki4473zLBdm54El-25">
          <mxGeometry relative="1" as="geometry" />
        </mxCell>
        <mxCell id="M_Cu6ki4473zLBdm54El-23" value="Yes" style="rhombus;whiteSpace=wrap;html=1;rounded=0;fillColor=#d5e8d4;strokeColor=#82b366;" vertex="1" parent="1">
          <mxGeometry x="285" y="570" width="80" height="80" as="geometry" />
        </mxCell>
        <mxCell id="M_Cu6ki4473zLBdm54El-32" style="edgeStyle=orthogonalEdgeStyle;rounded=0;orthogonalLoop=1;jettySize=auto;html=1;entryX=0.5;entryY=0;entryDx=0;entryDy=0;" edge="1" parent="1" source="M_Cu6ki4473zLBdm54El-25" target="M_Cu6ki4473zLBdm54El-31">
          <mxGeometry relative="1" as="geometry" />
        </mxCell>
        <mxCell id="M_Cu6ki4473zLBdm54El-33" value="Computer is been isolated" style="edgeLabel;html=1;align=center;verticalAlign=middle;resizable=0;points=[];" vertex="1" connectable="0" parent="M_Cu6ki4473zLBdm54El-32">
          <mxGeometry x="-0.1" y="1" relative="1" as="geometry">
            <mxPoint as="offset" />
          </mxGeometry>
        </mxCell>
        <mxCell id="M_Cu6ki4473zLBdm54El-25" value="Limacharlie" style="rounded=1;whiteSpace=wrap;html=1;fillColor=#dae8fc;strokeColor=#6c8ebf;" vertex="1" parent="1">
          <mxGeometry x="265" y="710" width="120" height="60" as="geometry" />
        </mxCell>
        <mxCell id="M_Cu6ki4473zLBdm54El-27" value="" style="verticalAlign=top;verticalLabelPosition=bottom;labelPosition=center;align=center;html=1;outlineConnect=0;fillColor=#fff2cc;strokeColor=#d6b656;gradientDirection=north;strokeWidth=2;shape=mxgraph.networks.pc;" vertex="1" parent="1">
          <mxGeometry x="60" y="705" width="100" height="70" as="geometry" />
        </mxCell>
        <mxCell id="M_Cu6ki4473zLBdm54El-29" value="Isolate machine" style="text;html=1;align=center;verticalAlign=middle;resizable=0;points=[];autosize=1;strokeColor=none;fillColor=none;" vertex="1" parent="1">
          <mxGeometry x="160" y="720" width="110" height="30" as="geometry" />
        </mxCell>
        <mxCell id="M_Cu6ki4473zLBdm54El-31" value="Slack" style="rounded=1;whiteSpace=wrap;html=1;fillColor=#f8cecc;strokeColor=#b85450;" vertex="1" parent="1">
          <mxGeometry x="265" y="870" width="120" height="60" as="geometry" />
        </mxCell>
        <mxCell id="M_Cu6ki4473zLBdm54El-34" style="edgeStyle=orthogonalEdgeStyle;rounded=0;orthogonalLoop=1;jettySize=auto;html=1;entryX=1;entryY=0.5;entryDx=0;entryDy=0;entryPerimeter=0;" edge="1" parent="1" source="M_Cu6ki4473zLBdm54El-25" target="M_Cu6ki4473zLBdm54El-27">
          <mxGeometry relative="1" as="geometry" />
        </mxCell>
        <mxCell id="M_Cu6ki4473zLBdm54El-35" value="Slack" style="rounded=1;whiteSpace=wrap;html=1;fillColor=#f8cecc;strokeColor=#b85450;" vertex="1" parent="1">
          <mxGeometry x="525" y="870" width="120" height="60" as="geometry" />
        </mxCell>
        <mxCell id="M_Cu6ki4473zLBdm54El-39" style="edgeStyle=orthogonalEdgeStyle;rounded=0;orthogonalLoop=1;jettySize=auto;html=1;" edge="1" parent="1" source="M_Cu6ki4473zLBdm54El-38" target="M_Cu6ki4473zLBdm54El-5">
          <mxGeometry relative="1" as="geometry" />
        </mxCell>
        <mxCell id="M_Cu6ki4473zLBdm54El-38" value="" style="verticalAlign=top;verticalLabelPosition=bottom;labelPosition=center;align=center;html=1;outlineConnect=0;fillColor=#f8cecc;strokeColor=#b85450;gradientDirection=north;strokeWidth=2;shape=mxgraph.networks.pc;" vertex="1" parent="1">
          <mxGeometry x="-10" y="195" width="100" height="70" as="geometry" />
        </mxCell>
        <mxCell id="M_Cu6ki4473zLBdm54El-40" value="Infected" style="edgeLabel;html=1;align=center;verticalAlign=middle;resizable=0;points=[];" vertex="1" connectable="0" parent="1">
          <mxGeometry x="299.9979310344828" y="220" as="geometry">
            <mxPoint x="-258" y="61" as="offset" />
          </mxGeometry>
        </mxCell>
        <mxCell id="M_Cu6ki4473zLBdm54El-41" value="Detect hack tool" style="edgeLabel;html=1;align=center;verticalAlign=middle;resizable=0;points=[];" vertex="1" connectable="0" parent="1">
          <mxGeometry x="324.9979310344828" y="230" as="geometry">
            <mxPoint x="-208" y="-43" as="offset" />
          </mxGeometry>
        </mxCell>
      </root>
    </mxGraphModel>
  </diagram>
</mxfile>
